<?xml version="1.0" encoding="utf-8"?>
<!-- Svg Vector Icons : http://www.onlinewebfonts.com/icon -->
<!DOCTYPE svg PUBLIC "-//W3C//DTD SVG 1.1//EN" "http://www.w3.org/Graphics/SVG/1.1/DTD/svg11.dtd">
<svg version="1.1" xmlns="http://www.w3.org/2000/svg" xmlns:xlink="http://www.w3.org/1999/xlink" x="0px" y="0px" viewBox="0 0 1000 1000" enable-background="new 0 0 1000 1000" xml:space="preserve">
<metadata> Svg Vector Icons : http://www.onlinewebfonts.com/icon </metadata>
<g><path d="M932.6,290.2l-251.5-253C663.7,19.8,640.2,10,615.7,10H144C86.8,10,40.6,56.3,40.6,113.4v773.3C40.6,943.8,86.9,990,144,990h712c57.1,0,103.4-46.3,103.4-103.4V355.2C959.4,330.8,949.7,307.4,932.6,290.2z M898.1,886.6c0,23.3-18.9,42.1-42.1,42.1H144c-23.3,0-42.1-18.9-42.1-42.1V113.4c0-23.3,18.9-42.1,42.1-42.1h471.7c8.1,0,16.2,3.4,21.9,9.1l251.5,253c5.8,5.8,9,13.6,9,21.8V886.6z"/><path d="M745,499H530.7V285.6c0-16.9-13.7-30.6-30.6-30.6s-30.6,13.7-30.6,30.6V499H255c-16.9,0-30.6,13.7-30.6,30.6c0,16.9,13.7,30.6,30.6,30.6h214.5v215.3c0,16.9,13.7,30.6,30.6,30.6s30.6-13.7,30.6-30.6V560.3H745c16.9,0,30.6-13.7,30.6-30.6C775.6,512.7,761.9,499,745,499z"/></g>
</svg>