<?xml version="1.0" ?><!DOCTYPE svg  PUBLIC '-//W3C//DTD SVG 1.1//EN'  'http://www.w3.org/Graphics/SVG/1.1/DTD/svg11.dtd'><svg height="5.4186mm" style="shape-rendering:geometricPrecision; text-rendering:geometricPrecision; image-rendering:optimizeQuality; fill-rule:evenodd; clip-rule:evenodd" version="1.1" viewBox="0 0 542 542" width="5.4186mm" xml:space="preserve" xmlns="http://www.w3.org/2000/svg" xmlns:xlink="http://www.w3.org/1999/xlink"><defs><style type="text/css">
   <![CDATA[
    .fil0 {fill:black;fill-rule:nonzero}
   ]]>
  </style></defs><g id="Layer_x0020_1"><path class="fil0" d="M196 351c-3,-3 -2,-9 2,-12 3,-2 9,-2 12,2 7,10 16,18 27,23l0 0c10,5 22,8 34,8 12,0 24,-3 35,-8 10,-6 20,-14 27,-23 3,-4 8,-5 12,-2 4,2 4,8 2,12 -9,12 -21,21 -34,28 -13,6 -27,10 -42,10 -15,0 -29,-4 -42,-10l0 0 0 0c-13,-7 -24,-16 -33,-28zm75 -258c98,0 178,80 178,178 0,98 -80,178 -178,178 -98,0 -178,-80 -178,-178 0,-98 80,-178 178,-178zm0 17c-89,0 -161,72 -161,161 0,89 72,161 161,161 89,0 161,-72 161,-161 0,-89 -72,-161 -161,-161zm-68 146c8,0 15,7 15,16 0,8 -7,15 -15,15 -9,0 -16,-7 -16,-15 0,-9 7,-16 16,-16zm137 -1c8,0 15,7 15,16 0,8 -7,15 -15,15 -9,0 -16,-7 -16,-15 0,-9 7,-16 16,-16z"/></g></svg>