<?xml version="1.0" ?><!DOCTYPE svg  PUBLIC '-//W3C//DTD SVG 1.1//EN'  'http://www.w3.org/Graphics/SVG/1.1/DTD/svg11.dtd'><svg height="5.4186mm" style="shape-rendering:geometricPrecision; text-rendering:geometricPrecision; image-rendering:optimizeQuality; fill-rule:evenodd; clip-rule:evenodd" version="1.1" viewBox="0 0 542 542" width="5.4186mm" xml:space="preserve" xmlns="http://www.w3.org/2000/svg" xmlns:xlink="http://www.w3.org/1999/xlink"><defs><style type="text/css">
   <![CDATA[
    .fil0 {fill:black;fill-rule:nonzero}
   ]]>
  </style></defs><g id="Layer_x0020_1"><path class="fil0" d="M171 359l74 -111c1,-1 2,-2 3,-3l111 -74c4,-3 10,-2 12,2 2,3 2,7 0,10l-74 111c-1,1 -2,2 -3,3l-112 74c-3,3 -9,2 -11,-2 -2,-3 -2,-7 0,-10zm100 -266c98,0 178,80 178,178 0,98 -80,178 -178,178 -98,0 -178,-80 -178,-178 0,-98 80,-178 178,-178zm0 17c-89,0 -161,72 -161,161 0,89 72,161 161,161 89,0 161,-72 161,-161 0,-89 -72,-161 -161,-161zm-5 144l22 22 46 -68 -68 46zm10 34l-22 -22 -46 68 68 -46z"/></g></svg>