<?xml version="1.0" ?><svg data-name="Layer 1" id="Layer_1" viewBox="0 0 512 512" xmlns="http://www.w3.org/2000/svg"><defs><style>.cls-1{fill:#1d1d1d;}</style></defs><path class="cls-1" d="M335.66,336.06c.06-53.43-.09-106.84.18-160.26.05-8.33-2.62-11.25-11.07-11.19-45.6.31-91.21.4-136.8-.05-9.83-.1-12,3.67-11.83,12.55.44,26.36.16,52.74.16,79.11s0,52.75,0,79.12c0,4.23-1.41,9.53,3.84,11.58s7.75-3,10.67-6c18.87-18.89,37.87-37.64,56.2-57.05,6.55-6.94,10.32-8.48,17.7-.46,18.31,19.87,37.74,38.7,56.81,57.87,2.95,3,5.59,7.78,10.81,5.57C337.12,344.87,335.65,339.92,335.66,336.06ZM324.72,327c-19.17-18.9-37.2-36.62-55.19-54.42-11.95-11.82-15.26-11.88-27.35.33-15.46,15.61-30.79,31.35-46.29,46.92-2.26,2.27-3.92,5.47-8.61,6.39V293.87c0-36.19.17-72.38-.14-108.57-.06-6.78,1.34-9.32,8.75-9.24,40.21.36,80.42.19,120.63.14,4.64,0,8.37-.4,8.34,6.52C324.59,230.34,324.72,278,324.72,327Z"/></svg>