<?xml version="1.0" ?><svg data-name="Layer 1" id="Layer_1" viewBox="0 0 512 512" xmlns="http://www.w3.org/2000/svg"><defs><style>.cls-1{fill:#1d1d1d;}</style></defs><path class="cls-1" d="M332.36,346.88c-5.22,2.21-7.86-2.61-10.81-5.57-19.07-19.17-38.5-38-56.81-57.87-7.38-8-11.15-6.48-17.7.46-18.33,19.41-37.33,38.16-56.2,57.05-2.92,2.93-5.39,8-10.67,6s-3.82-7.35-3.84-11.58q-.09-39.55,0-79.12c0-26.37.28-52.75-.16-79.11-.14-8.88,2-12.65,11.83-12.55,45.59.45,91.2.36,136.8.05,8.45-.06,11.12,2.86,11.07,11.19-.27,53.42-.12,106.83-.18,160.26C335.65,339.92,337.12,344.87,332.36,346.88Z"/></svg>