<?xml version="1.0" ?><!DOCTYPE svg  PUBLIC '-//W3C//DTD SVG 1.1//EN'  'http://www.w3.org/Graphics/SVG/1.1/DTD/svg11.dtd'><svg height="5.4186mm" style="shape-rendering:geometricPrecision; text-rendering:geometricPrecision; image-rendering:optimizeQuality; fill-rule:evenodd; clip-rule:evenodd" version="1.1" viewBox="0 0 542 542" width="5.4186mm" xml:space="preserve" xmlns="http://www.w3.org/2000/svg" xmlns:xlink="http://www.w3.org/1999/xlink"><defs><style type="text/css">
   <![CDATA[
    .fil0 {fill:black;fill-rule:nonzero}
   ]]>
  </style></defs><g id="Layer_x0020_1"><path class="fil0" d="M469 207c-1,79 -136,184 -192,241 -4,3 -9,3 -12,0 -57,-57 -191,-162 -192,-241 -1,-42 17,-73 43,-92 28,-20 64,-25 96,-14 24,9 46,26 59,54 13,-28 34,-45 58,-54 32,-11 69,-6 96,14 26,19 44,50 44,92zm-17 0c0,-36 -15,-62 -37,-78 -23,-17 -53,-21 -80,-12 -25,9 -47,30 -56,64 -2,8 -14,8 -16,0 -10,-34 -31,-55 -56,-64 -27,-9 -58,-5 -81,12 -22,16 -37,42 -36,78 0,67 130,174 181,223 51,-49 180,-156 181,-223z"/></g></svg>