<?xml version="1.0" ?><svg data-name="Layer 1" id="Layer_1" viewBox="0 0 512 512" xmlns="http://www.w3.org/2000/svg"><defs><style>.cls-1{fill:#2e2e2e;}</style></defs><path class="cls-1" d="M343.15,296.48c0-14-.3-28,.17-41.93.17-4.71-1.74-7.57-4.68-10.5-25.11-25-50.28-49.84-75.18-75-5.32-5.38-9.18-5.59-14.63-.07q-37.31,37.76-75.18,75a15,15,0,0,0-5,11.63c.17,27.23.23,54.46,0,81.68-.07,7.15,2.66,9.84,9.76,9.73,16.62-.27,33.25-.32,49.86,0,7.82.15,10.36-3.07,10.1-10.58-.42-12.49-.3-25-.06-37.52.27-14.22,6.9-21.95,18.06-21.69,10.77.27,16.86,7.77,17,21.45.15,12.88.21,25.76,0,38.64-.13,6.44,2.33,9.64,9,9.6,17.35-.06,34.71-.15,52.07.05,7,.07,8.68-3.41,8.54-9.67-.3-13.61-.1-27.23-.1-40.84Zm-11.42-34.83c-.22,7.85-.16,15.7-.11,23.55,0,2.83,0,5.65,0,8.48,0,1.69,0,3.39,0,5.08v0q0,5.07,0,10.14c0,6.7,0,13.39.14,20.08.11,4.76-1.43,6.48-6.31,6.36-11.44-.28-22.9-.25-34.35,0-4.87.11-6.38-1.77-6.27-6.47.25-11,.24-22.09,0-33.13-.35-17.89-11.8-29.79-28.53-30-17.21-.18-29,11.85-29.33,30.34-.2,10.31-.53,20.64.12,30.91.45,7.12-2.17,8.72-8.76,8.38a255.09,255.09,0,0,0-29.91,0c-7.17.48-8.54-2.2-8.42-8.74.39-21.71.28-43.44.05-65.16-.06-5.13,1.25-8.91,5-12.6q32.77-32.14,65-64.81c4.6-4.67,7.08-5.35,12.06-.24,21.1,21.66,42.61,42.93,64.23,64.07C330.5,252,331.89,256.16,331.73,261.65Z"/></svg>