<?xml version="1.0" ?><!DOCTYPE svg  PUBLIC '-//W3C//DTD SVG 1.1//EN'  'http://www.w3.org/Graphics/SVG/1.1/DTD/svg11.dtd'><svg height="5.4186mm" style="shape-rendering:geometricPrecision; text-rendering:geometricPrecision; image-rendering:optimizeQuality; fill-rule:evenodd; clip-rule:evenodd" version="1.1" viewBox="0 0 542 542" width="5.4186mm" xml:space="preserve" xmlns="http://www.w3.org/2000/svg" xmlns:xlink="http://www.w3.org/1999/xlink"><defs><style type="text/css">
   <![CDATA[
    .fil0 {fill:black;fill-rule:nonzero}
   ]]>
  </style></defs><g id="Layer_x0020_1"><path class="fil0" d="M362 424c-28,16 -59,25 -91,25 -98,0 -178,-80 -178,-178 0,-98 80,-178 178,-178 98,0 178,80 178,178 0,33 -9,65 -27,93l25 74c2,6 -5,12 -11,10l-74 -24zm-6 -17l0 0c3,-1 5,-1 8,-1l61 21 -20 -61c-1,-2 -1,-5 1,-7 17,-27 26,-57 26,-88 0,-89 -72,-161 -161,-161 -89,0 -161,72 -161,161 0,89 72,161 161,161 30,0 60,-9 85,-25z"/></g></svg>