<?xml version="1.0" ?><!DOCTYPE svg  PUBLIC '-//W3C//DTD SVG 1.1//EN'  'http://www.w3.org/Graphics/SVG/1.1/DTD/svg11.dtd'><svg height="5.4186mm" style="shape-rendering:geometricPrecision; text-rendering:geometricPrecision; image-rendering:optimizeQuality; fill-rule:evenodd; clip-rule:evenodd" version="1.1" viewBox="0 0 542 542" width="5.4186mm" xml:space="preserve" xmlns="http://www.w3.org/2000/svg" xmlns:xlink="http://www.w3.org/1999/xlink"><defs><style type="text/css">
   <![CDATA[
    .fil0 {fill:black;fill-rule:nonzero}
   ]]>
  </style></defs><g id="Layer_x0020_1"><path class="fil0" d="M247 93c83,0 151,68 151,151 0,39 -15,75 -40,102l88 88c4,4 4,9 0,12 -3,4 -8,4 -12,0l-88 -88c-27,23 -61,37 -99,37 -83,0 -150,-68 -150,-151 0,-83 67,-151 150,-151zm0 17c-74,0 -134,60 -134,134 0,74 60,134 134,134 74,0 134,-60 134,-134 0,-74 -60,-134 -134,-134z"/></g></svg>